<svg width="24" height="24" viewBox="0 0 24 24" fill="none" xmlns="http://www.w3.org/2000/svg">
  <path opacity="0.4" d="M2.28099 19.6575C2.36966 20.5161 2.93261 21.1957 3.77688 21.3755C5.1095 21.6592 7.6216 22 12 22C16.3784 22 18.8905 21.6592 20.2232 21.3755C21.0674 21.1957 21.6303 20.5161 21.719 19.6575C21.8505 18.3844 22 16.0469 22 12C22 7.95305 21.8505 5.6156 21.719 4.34251C21.6303 3.48389 21.0674 2.80424 20.2231 2.62451C18.8905 2.34081 16.3784 2 12 2C7.6216 2 5.1095 2.34081 3.77688 2.62451C2.93261 2.80424 2.36966 3.48389 2.28099 4.34251C2.14952 5.6156 2 7.95305 2 12C2 16.0469 2.14952 18.3844 2.28099 19.6575Z" fill="#637381"/>
  <path d="M10 8C9.44772 8 9 8.44772 9 9V15C9 15.5523 9.44772 16 10 16H11V17C11 17.5523 11.4477 18 12 18C12.5523 18 13 17.5523 13 17V16H14C14.5523 16 15 15.5523 15 15V9C15 8.44772 14.5523 8 14 8H10ZM12 13H11V10H12V13ZM14 14H13V10H14V14Z" fill="#637381"/>
</svg>
